<?xml version="1.0" standalone="no"?>
<!DOCTYPE svg PUBLIC "-//W3C//DTD SVG 20010904//EN"
 "http://www.w3.org/TR/2001/REC-SVG-20010904/DTD/svg10.dtd">
<svg version="1.0" xmlns="http://www.w3.org/2000/svg"
 width="480.000000pt" height="480.000000pt" viewBox="0 0 480.000000 480.000000"
 preserveAspectRatio="xMidYMid meet">
<metadata>
Created by potrace 1.14, written by Peter Selinger 2001-2017
</metadata>
<g transform="translate(0.000000,480.000000) scale(0.100000,-0.100000)"
fill="#000000" stroke="none">
<path d="M400 3400 l0 -1000 1000 0 1000 0 0 -1000 0 -1000 1000 0 1000 0 0
1000 0 1000 -1000 0 -1000 0 0 1000 0 1000 -1000 0 -1000 0 0 -1000z m955 572
c63 -29 129 -93 161 -155 68 -132 24 -313 -95 -388 -37 -24 -41 -29 -25 -35
55 -19 106 -49 129 -76 70 -83 90 -183 60 -296 -16 -56 -27 -75 -70 -119 -41
-40 -66 -56 -121 -74 -64 -21 -90 -23 -381 -27 l-313 -4 0 602 0 601 303 -3
c291 -3 304 -4 352 -26z m545 -434 l0 -61 30 41 c34 47 70 68 129 78 l41 7 0
-102 c0 -96 -1 -101 -21 -101 -76 0 -148 -55 -168 -127 -6 -21 -11 -135 -11
-255 l0 -218 -100 0 -100 0 0 400 0 400 100 0 100 0 0 -62z m1355 -1566 c63
-29 129 -93 161 -155 68 -132 24 -313 -95 -388 -37 -24 -41 -29 -25 -35 55
-19 106 -49 129 -76 70 -83 90 -183 60 -296 -16 -56 -27 -75 -70 -119 -41 -40
-66 -56 -121 -74 -64 -21 -90 -23 -381 -27 l-313 -4 0 602 0 601 303 -3 c291
-3 304 -4 352 -26z m764 -363 c67 -14 111 -45 140 -99 24 -43 25 -56 37 -350
6 -168 15 -313 19 -323 7 -16 1 -18 -75 -15 l-83 3 -11 32 -11 31 -35 -29
c-115 -97 -303 -68 -376 57 -52 88 -41 201 27 278 44 50 99 76 232 111 140 36
147 40 147 74 0 17 -10 42 -24 58 -22 26 -30 28 -96 28 -66 0 -74 -2 -96 -28
-13 -15 -24 -39 -24 -53 0 -27 -8 -28 -99 -17 l-53 6 6 45 c12 92 86 170 179
192 48 12 140 11 196 -1z"/>
<path d="M900 3650 l0 -151 158 3 c115 2 165 7 186 18 93 48 100 190 13 254
-26 19 -45 21 -193 24 l-164 4 0 -152z"/>
<path d="M900 3135 l0 -157 188 4 c166 3 191 5 222 23 92 54 93 200 1 257 -33
21 -49 23 -223 26 l-188 4 0 -157z"/>
<path d="M2800 1650 l0 -151 158 3 c115 2 165 7 186 18 93 48 100 190 13 254
-26 19 -45 21 -193 24 l-164 4 0 -152z"/>
<path d="M2800 1135 l0 -157 188 4 c166 3 191 5 222 23 92 54 93 200 1 257
-33 21 -49 23 -223 26 l-188 4 0 -157z"/>
<path d="M3970 1160 c-8 -5 -37 -17 -65 -26 -93 -31 -122 -88 -70 -139 30 -31
77 -33 123 -5 40 24 52 54 52 126 0 55 -8 64 -40 44z"/>
</g>
</svg>
